<svg xmlns="http://www.w3.org/2000/svg" viewBox="0 0 2500 2500"><path fill="#232F3E" d="M0 0h2500v2500H0z"/><path fill="#fff" d="M856.3 1515.2c16.5 1.4 34.4 2.8 52.8 2.8 26.4 0 45.4-1.4 61-2.8l1.4 57.3c-11.2 2.8-31 4.2-51.4 4.2-31 0-66.2-4.2-92.4-12.6l-5.6-58.7zm116.3-267.5c-43.4 0-67.2 22.4-67.2 54.6 0 21 14 36.4 40.6 44.8l21 7c28.1 9.8 39.2 23.8 39.2 44.8 0 28-21 44.8-63 44.8-33.6 0-51.8-8.4-65.8-16.8l-15.4 67.2c22.4 12.6 47.6 19.6 84 19.6 63 0 102.2-32.2 102.2-88.2 0-51.8-35-75.6-88.2-86.8l-19.6-5.6c-18.2-5.6-26.6-14-26.6-26.6 0-16.8 14-28 40.6-28 22.4 0 35 7 46.2 14l12.6-64.4c-15.4-8.4-36.4-14-61.6-14zm266.3 351.5c-29.4 0-53.2-12.6-70-35l-93.8-154-15.4-25.2-3.1 214.2h-112.2l4.2-613.2h120.4l159.9 269 161.3-269h120.4l-194.2 329.1c32.2 22.4 53.2 53.2 53.2 92.4 0 58.8-46.2 96.6-112.2 96.6zm70-302.5L1214.9 833h137.2l84.2 145.7z"/><path fill="#FF9900" d="M1855.9 1162.2c0-155-121.3-176.7-259-176.7-142.3 0-259 40-259 187.3 0 167 151.7 180.7 271 180.7 72.3 0 119.3-17 175-52.7l30.7 75.3c-62 43-128.7 67.7-208.7 67.7-201.3 0-353.7-111.3-353.7-271 0-192.7 167-271.7 353-271.7 186.3 0 341.3 75.3 341.3 252.7 0 22-2.7 44.7-5.3 66.7h-415.6c9.3 54 52.3 84.7 106.3 84.7 50.3 0 89.3-25.3 118-58.3zm-105-103.3c-10.7-52.7-53.7-86-105-86-53.7 0-96.7 34-106.3 86h211.3z"/></svg>