<svg width="256" height="256" viewBox="0 0 256 256" fill="none" xmlns="http://www.w3.org/2000/svg">
<g clip-path="url(#clip0_103_2)">
<path d="M211.233 76.333L191.011 68.105L178.9 44.5H77.133L65.022 68.105L44.8 76.333L69.116 114.153L44.8 151.972L65.022 159.917L77.133 183.522H178.9L191.011 159.917L211.233 151.972L186.917 114.153L211.233 76.333Z" fill="#232F3E"/>
<path d="M128.017 172.967C101.442 172.967 79.983 157.925 71.181 135.217C67.756 126.158 67.439 116.467 69.864 107.408C73.344 93.942 83.189 83.058 95.839 77.8C108.489 72.542 122.95 73.175 135.228 79.317C142.164 82.742 148.017 87.8 152.056 94.217C156.411 101.033 158.644 108.887 158.644 116.833V117.15L110.278 132.825L118.822 146.508C120.731 149.775 124.267 151.792 128.017 151.792C130.497 151.792 132.867 151.017 134.856 149.567L144.383 156.325C139.711 158.9 133.911 160.35 128.017 160.35C118.383 160.35 109.172 156.75 102.553 150.447C110.35 159.833 123.511 172.967 128.017 172.967C140.667 172.967 149.211 163.633 149.211 151.475C149.211 142.092 142.481 134.333 133.539 132.825L174.969 111.953C174.653 111.414 174.336 110.875 174.019 110.336C170.803 104.947 166.186 100.536 160.672 97.697C150.392 92.503 138.114 91.783 127.386 95.492C116.658 99.2 108.431 107.05 105.108 117.15C103.742 121.325 103.742 125.792 104.953 129.967C107.058 137.4 112.514 143.1 119.531 145.733C132.239 150.35 146.642 144.55 152.056 131.792L182.233 115.958L174.969 111.953L128.017 130.333L101.903 117.15L128.017 103.967C138.833 99.033 151.283 101.292 159.5 108.887C162.775 111.892 165.144 115.6 166.356 119.717C168.125 125.858 167.35 132.375 164.239 137.875L128.017 155.067L119.847 141.275L128.017 137.1C133.092 134.85 137.022 130.675 138.486 125.792C139.697 121.783 139.322 117.55 137.553 113.833C135.783 110.117 132.778 107.111 129.003 105.342C121.514 101.806 112.631 102.525 105.425 107.033C100.808 109.978 97.486 114.153 95.839 119.083C94.417 123.367 94.417 127.942 95.628 132.225C97.536 138.844 102.731 144.039 109.172 146.233C120.378 149.883 132.492 144.608 138.486 133.458L143.172 125.683L146.439 127.453L128.017 155.067C121.144 155.067 114.478 152.875 109.172 149.1L100.736 162.875C112.203 169.117 126.178 169.117 137.644 162.875L146.081 149.1C151.386 152.875 158.053 155.067 164.925 155.067L183.35 127.453L186.617 125.683L177.144 133.458C171.15 144.608 159.036 149.883 147.828 146.233C141.386 144.039 136.192 138.844 134.283 132.225C132.472 125.983 133.247 119.167 136.464 113.833C138.997 109.55 142.481 105.95 146.547 103.483C155.275 98.347 165.719 98.886 174.019 104.4C180.75 108.775 185.308 115.333 186.617 122.803C188.136 131.297 186.119 139.95 181.044 146.992C175.739 154.35 167.992 159.417 159.447 161.033C149.053 163.05 138.489 161.225 129.547 155.95L128.017 172.967Z" fill="#FF9900"/>
</g>
<defs>
<clipPath id="clip0_103_2">
<rect width="256" height="256" fill="white"/>
</clipPath>
</defs>
</svg>