<svg width="256" height="256" viewBox="0 0 256 256" fill="none" xmlns="http://www.w3.org/2000/svg">
<g clip-path="url(#clip0_103_4)">
<path d="M256 128C256 198.704 198.704 256 128 256C57.296 256 0 198.704 0 128C0 57.296 57.296 0 128 0C198.704 0 256 57.296 256 128Z" fill="#092E20"/>
<path d="M109.28 206.72V73.44H130.4V154.56C130.4 172.64 139.36 175.2 151.36 172.32V192C143.52 193.92 133.76 193.6 130.4 184.48V73.44H165.28V50H74.56V73.44H101.12V206.72H109.28Z" fill="#0C4B33"/>
<path d="M101.12 73.44H74.56V50H165.28V73.44H130.4V184.48C133.76 193.6 143.52 193.92 151.36 192V172.32C139.36 175.2 130.4 172.64 130.4 154.56V73.44H109.28V206.72H101.12V73.44Z" fill="white"/>
</g>
<defs>
<clipPath id="clip0_103_4">
<rect width="256" height="256" fill="white"/>
</clipPath>
</defs>
</svg>
