<svg width="256" height="256" viewBox="0 0 256 256" fill="none" xmlns="http://www.w3.org/2000/svg">
<path d="M242.428 127.428C241.139 105.861 233.153 85.3856 219.799 68.6143C206.445 51.8429 188.47 40.0001 168.143 34.6428C147.816 29.2856 126.139 30.6714 106.143 38.5714C86.1464 46.4714 69.1392 60.2856 57.2821 78.1428C51.5678 87.2304 47.4688 97.4641 45.2821 108.143L25.1392 103.857L28.1392 119.571L48.2821 123.857C48.2821 125.143 48.2821 126.428 48.2821 127.714C48.2821 154.913 59.3905 180.963 78.8092 200.382C98.2279 219.801 124.279 230.909 151.425 230.909C178.571 230.909 204.621 219.801 224.04 200.382C243.459 180.963 254.567 154.913 254.567 127.714H242.428V127.428Z" fill="#2496ED"/>
<path d="M197.854 100.286H177.139V80.1428H156.425V100.286H135.711V80.1428H114.996V100.286H94.2821V80.1428H73.5678V100.286H52.8535V120.428H197.854V100.286Z" fill="white"/>
</g>
</svg>
