<svg xmlns="http://www.w3.org/2000/svg" viewBox="0 0 256 209"><path fill="#2496ED" d="M252.3 89.3c-2.4-9.3-12.2-14.2-21.5-11.8L193.5 88V77.8c0-10-8.2-18.3-18.3-18.3h-16.5V54.4c0-10-8.2-18.3-18.3-18.3h-16.5V20.8c0-10-8.2-18.3-18.3-18.3H20.8C10.8 2.5 2.5 10.8 2.5 20.8v72.5c-2.5 1.5-4.2 4.2-4.2 7.2v17c0 4.2 2.8 7.8 6.8 9.2V164c0 10 8.2 18.3 18.3 18.3h12.5v12.5c0 10 8.2 18.3 18.3 18.3h12.5c10 0 18.3-8.2 18.3-18.3v-12.5h12.5c10 0 18.3-8.2 18.3-18.3v-12.5h12.5c10 0 18.3-8.2 18.3-18.3v-12.5h12.5c10 0 18.3-8.2 18.3-18.3v-12.5h8a18.3 18.3 0 0 0 16-9.2c1.7-2.6 6.8-9.6 1.8-19.3zm-208 25.6H29.1v-7.8h15.2v7.8zm30.5 0h-15.2v-7.8h15.2v7.8zm30.5 0H90v-7.8h15.2v7.8zM29.1 99.7v-7.8h15.2v7.8H29.1zm30.5 0v-7.8h15.2v7.8H59.6zm30.5 0v-7.8h15.2v7.8H90zm30.5-15.2v-7.8h15.2v7.8h-15.2zm0-15.2v-7.8h15.2v7.8h-15.2zm-30.5 0v-7.8h15.2v7.8H90zm30.5-15.2v-7.8h15.2v7.8h-15.2zM90 54.1v-7.8h15.2v7.8H90zm30.5 0v-7.8h15.2v7.8h-15.2zM211.2 101a9 9 0 0 1-16 0V92c0-5 4-9 9-9h51c4.2 0 8.8 3.3 10.3 7.8 1.4 4.5-1.4 10.3-6.2 12.6l-48.1 23.4z"/></svg>