<svg width="256" height="256" viewBox="0 0 256 256" fill="none" xmlns="http://www.w3.org/2000/svg">
<rect width="256" height="256" rx="28" fill="white"/>
<path d="M228.385 185.123L213.623 166.726C211.231 163.763 207.692 162.77 204.538 164.018L171.308 176.621C168.077 177.946 165.385 175.328 166.462 172.08L183.692 119.12C184.769 115.871 182.077 113.176 178.846 114.501L144.385 127.478C141.231 128.726 138.538 126.108 139.615 122.859L164.538 49.3773C165.462 46.5701 162.154 44.5912 160.077 46.3847L40.9231 143.149C38.3077 145.39 40.1538 149.431 43.3846 148.438L80.5385 137.602C83.7692 136.609 86.4615 139.227 85.3846 142.476L68.1538 195.436C67.0769 198.685 69.7692 201.38 73 200.055L107.462 187.078C110.615 185.83 113.308 188.448 112.231 191.697L100.923 226.929C100.077 229.451 102.769 231.507 104.769 229.936L226.692 132.074C229.154 130.172 227.692 126.579 225.077 127.131L186.692 136.105C183.538 136.734 181.769 140.25 183.846 142.476L229.692 182.237C231.846 184.216 235.077 183.477 236.231 180.591L247.077 154.49C248.385 151.342 245.923 148.194 242.692 149.187L203.231 160.487C200 161.403 197.692 158.785 198.846 155.694L230.308 72.0622C231.385 69.1758 228.308 66.8524 226.077 68.3907L27.6923 189.92C25.3077 191.545 27.6923 195.138 30.3077 194.321L67.0769 183.678C70.2308 182.762 72.8462 185.38 71.8462 188.551L53.3077 245.34C52.4615 248.07 55.6154 250.049 57.3846 248.147L235.077 106.398C237.538 104.42 235.615 100.378 232.385 101.371L195.615 112.207C192.385 113.2 189.692 110.582 190.769 107.333L237.846 -13.3341" stroke="#333333" stroke-opacity="0.1" stroke-width="8"/>
</svg>
