<svg xmlns="http://www.w3.org/2000/svg" viewBox="0 0 512 512"><path d="M512 256c0 .9 0 1.9 0 2.8c-2.3 84.8-70.3 152.9-155.2 155.2c-.9 0-1.9 0-2.8 0H157.2c-.9 0-1.9 0-2.8 0C69.5 411.7 1.5 343.6 0 258.8c0-.9 0-1.9 0-2.8v-2.8C2.3 171.2 70.3 103.1 155.2 100.8c.9 0 1.9 0 2.8 0h200c.9 0 1.9 0 2.8 0c84.8 2.3 152.9 70.4 155.2 155.2c0 .9 0 1.9 0 2.8v.0z" fill="#303030"/><path d="M108.4 188.5c6.3-18 22-31.1 40.5-35.3c18.5-4.2 38.3.6 51.5 14.8c13.2 14.2 17.5 33.8 12.9 51.5c-4.6 17.7-17.7 32-35.3 36.6c-1.3.4-2.5.5-3.8.5c-15.2 0-30-7.6-39.2-20.4c-9.1-12.8-11.8-28.7-7.6-43.2l-40.4-11c-2-.6-3.4-2.3-3.6-4.5zM292.5 323.5l1-1.7c6.3-10.6 8.5-22.6 5.8-34.4c-2.7-11.8-9.1-22.3-18.5-30.3c-9.4-8-21.3-13.2-34.1-14.8c-12.8-1.6-26.3-.3-38.3 4.2c-6.1 2.3-11.9 5.3-17.2 9.1v-40.5h-45V348h45v-47.3c12.3-2.1 25.2-1.2 37.1 2.9c11.9 4.1 22.8 11.2 31.1 20.7c8.3 9.5 13.9 21.3 15.8 34.1l1.7-1zM238.1 188.5h45v134.7h-45z" fill="#fff"/></svg>