<svg role="img" viewBox="0 0 24 24" xmlns="http://www.w3.org/2000/svg"><title>Express</title><path d="M24 18.331c-.043.43-.263.834-.633 1.127-.42.324-.954.444-1.464.354-1.258-.22-2.515-.45-3.772-.66-.46-.077-.92-.14-1.38-.223-.74-.132-1.48-.24-2.22-.354-.537-.083-1.074-.15-1.61-.226-1.073-.153-2.146-.28-3.22-.42-.536-.07-.98-.5-1.033-1.032-.05-.51.27-1.01.79-1.12.37-.078.75-.113 1.12-.178.93-.16 1.86-.28 2.79-.44 1.13-.19 2.26-.35 3.39-.53.78-.12 1.57-.2 2.35-.3.57-.07 1.13-.1 1.7-.17.6-.08.87-.6.92-.95.03-.21-.06-.44-.22-.6-.2-.2-.47-.3-.75-.35-.7-.1-1.4-.18-2.1-.25-1.38-.15-2.76-.28-4.14-.4-1.1-.1-2.2-.15-3.3-.23-.6-.04-1.2-.06-1.8-.05-.5.01-1.01.03-1.5.12-.58.1-.94.6-.92 1.14.03.6.53.98 1.13.95.83-.04 1.66-.03 2.49.03.8.06 1.6.15 2.4.26 1.2.18 2.4.38 3.6.58.9.15 1.8.28 2.7.42.33.05.67.08 1 .13.8.12.98.6.98 1.01 0 .4-.18.8-.57.94-.38.13-.8.15-1.2.18-1.3.1-2.6.16-3.9.23-.9.05-1.8.06-2.7.04-1.04-.02-2.08-.06-3.12-.13-1.1-.07-2.2-.1-3.3-.15-.5-.02-.8.2-.9.6-.08.3-.02.7.25.9.23.18.5.22.78.22.9.02 1.8.02 2.7 0 .9-.02 1.8-.05 2.7-.1.9-.06 1.8-.15 2.7-.26.9-.13 1.78-.28 2.68-.42.9-.15 1.8-.28 2.7-.43.5-.08 1-.15 1.5-.2.5-.04 1.02.04 1.28.48.24.4.04.9-.34 1.13-.37.22-.8.27-1.2.3-1.6.13-3.2.2-4.8.27-.9.04-1.8.06-2.7.03-.7-.02-1.4-.04-2.1-.06-1.2-.04-2.4-.05-3.6-.08-1.5-.04-2.43-1.1-2.4-2.43.02-1 .73-1.8 1.6-2.1.8-.28 1.6-.4 2.5-.5 1.2-.13 2.3-.23 3.5-.34 1.2-.1 2.4-.2 3.6-.26 1.3-.07 2.6-.1 3.9-.1.95 0 1.9.03 2.85.06.6.02 1.2.06 1.8.1.9.07 1.8.15 2.7.25 1.1.12 2.2.28 3.3.4.18.02.3.16.28.32zM12.01 4.524c-1.4.02-2.8.06-4.2.13-1.1.06-2.2.15-3.3.26-1.2.13-2.4.28-3.6.47-.4.06-.6-.2-.4-.6.18-.3.4-.5.7-.6 1.1-.3 2.2-.5 3.3-.7 1.4-.2 2.8-.4 4.2-.5 1.2-.1 2.4-.1 3.6-.1 1.1 0 2.2.03 3.3.08.9.04 1.8.1 2.7.2.4.04.8.1 1.2.14.7.07.9.4.9.8 0 .3-.2.6-.5.7-.2.1-.5.1-.7.1-1.1-.02-2.2-.06-3.3-.13-1-.06-2-.14-3-.23-1.1-.08-2.2-.13-3.3-.15z"/></svg>