<svg xmlns="http://www.w3.org/2000/svg" width="256" height="256" viewBox="0 0 24 24"><path fill="#009688" d="M12.012 21.37a5.12 5.12 0 0 0 4.938-5.328a5.12 5.12 0 0 0-4.938-4.937a5.12 5.12 0 0 0-5.328 4.938A5.12 5.12 0 0 0 12.012 21.37m0-1.2a3.92 3.92 0 0 1-3.75-3.737a3.92 3.92 0 0 1 3.75-4.125a3.92 3.92 0 0 1 4.125 3.75a3.92 3.92 0 0 1-4.125 4.112M12.012 8.95a5.12 5.12 0 0 0 5.062-5.187a5.12 5.12 0 0 0-5.063-5.063A5.12 5.12 0 0 0 6.762 3.75a5.12 5.12 0 0 0 5.25 5.2M17.3 11.237a.6.6 0 0 1-.413-.175l-4.5-4.5a.6.6 0 0 1-.175-.412a.6.6 0 0 1 .175-.413l.375-.375a.6.6 0 0 1 .413-.175a.6.6 0 0 1 .412.175l4.5 4.5a.6.6 0 0 1 .175.413a.6.6 0 0 1-.175.412l-.375.375a.6.6 0 0 1-.412.175m-11-5.625a.6.6 0 0 1-.412-.175L5.513 5.062a.6.6 0 0 1-.175-.412a.6.6 0 0 1 .175-.413L5.888 3.86a.6.6 0 0 1 .412-.175a.6.6 0 0 1 .413.175l.375.375a.6.6 0 0 1 .175.412a.6.6 0 0 1-.175.413l-.375.375a.6.6 0 0 1-.413.175Z"/></svg>