<svg xmlns="http://www.w3.org/2000/svg" width="256" height="256" viewBox="0 0 24 24"><path fill="currentColor" d="M20.25 5a.25.25 0 0 0-.25-.25h-5.914a.25.25 0 0 0-.177.073l-1.84 1.84a.25.25 0 0 0 0 .354l.823.823a.25.25 0 0 0 .354 0l1.207-1.208V11a.75.75 0 0 0 .75.75h1.5a.75.G75 0 0 0 .75-.75V6.75h1.25a.25.25 0 0 0 .25-.25V5Z"/><path fill="currentColor" d="M3.75 19c0 .414.336.75.75.75h5.914c.13 0 .255-.053.348-.146l1.84-1.84a.25.25 0 0 0 0-.354l-.823-.823a.25.25 0 0 0-.354 0l-1.208 1.208V13a.75.75 0 0 0-.75-.75h-1.5A.75.75 0 0 0 8 13v4.25H6.75A3.25 3.25 0 0 1 3.5 14v-2.25H2a.75.75 0 0 0-.75.75v5c0 .414.336.75.75.75h1.25V19ZM16.25 11.5a.75.75 0 0 0 .75-.75V6.5h1.25c.13 0 .255-.053.348-.146l1.246-1.247a.25.25 0 0 0 0-.353l-1.292-1.293a.25.25 0 0 0-.348-.057l-1.204.892V2.5a.75.75 0 0 0-1.5 0V4h-1.5a.75.75 0 0 0-.75.75v1.75H10a.75.75 0 0 0-.75.75v1.5c0 .414.336.75.75.75h1.25v2h2.25c.414 0 .75-.336.75-.75V11.5h1.25Zm-5-1.75A.75.75 0 0 0 10.5 11v4.25H9.25A.75.75 0 0 0 8.5 16v1.5c0 .414.336.75.75.75h1.75v1.25a.75.75 0 0 0 1.5 0v-1.5h1.5a.75.75 0 0 0 .75-.75V17a.75.75 0 0 0-.75-.75h-1.5v-4a.75.75 0 0 0-.75-.75h-1.5Z"/></svg>