<svg width="256" height="256" viewBox="0 0 256 256" fill="none" xmlns="http://www.w3.org/2000/svg">
<g clip-path="url(#clip0_103_12)">
<path d="M243.2 113.6L142.4 12.8C136 -3.2 120 -3.2 113.6 12.8L96 30.4L129.6 64L147.2 46.4L209.6 108.8L192 126.4V200C192 209.6 184 217.6 174.4 217.6C164.8 217.6 156.8 209.6 156.8 200V168L89.6 100.8V49.6L38.4 0C35.2 0 32 0 28.8 3.2L12.8 19.2C-3.2 35.2 -3.2 49.6 12.8 65.6L113.6 166.4C120 182.4 136 182.4 142.4 166.4L158.4 150.4L174.4 166.4V200C174.4 218.4 188.8 233.6 208 233.6C227.2 233.6 241.6 218.4 241.6 200V128C248 123.2 248 118.4 243.2 113.6Z" fill="#F05032"/>
<path d="M64 200C64 209.6 56 217.6 46.4 217.6C36.8 217.6 28.8 209.6 28.8 200C28.8 190.4 36.8 182.4 46.4 182.4C56 182.4 64 190.4 64 200Z" fill="#F05032"/>
</g>
<defs>
<clipPath id="clip0_103_12">
<rect width="256" height="256" fill="white"/>
</clipPath>
</defs>
</svg>
