<svg width="256" height="256" viewBox="0 0 256 256" fill="none" xmlns="http://www.w3.org/2000/svg">
<path d="M121.6 113.6H179.2C179.2 113.6 195.2 113.6 195.2 129.6C195.2 145.6 179.2 145.6 179.2 145.6H121.6V163.2H172.8C172.8 163.2 214.4 163.2 214.4 129.6C214.4 96 172.8 96 172.8 96H121.6V113.6Z" fill="#00ADD8"/>
<path d="M121.6 200H132.8L158.4 174.4H105.6L121.6 200Z" fill="#00ADD8"/>
<path d="M57.5999 129.6C57.5999 92.8 88 62.4 124.8 62.4C161.6 62.4 192 92.8 192 129.6C192 166.4 161.6 196.8 124.8 196.8C88 196.8 57.5999 166.4 57.5999 129.6Z" fill="#00ADD8"/>
<path d="M104 120H136V139.2H104V120Z" fill="#00ADD8"/>
<path d="M110.4 126.4H129.6V132.8H110.4V126.4Z" fill="white"/>
<path d="M136 120H128L104 144V152L136 120Z" fill="#00ADD8"/>
</g>
</svg>
