<svg xmlns="http://www.w3.org/2000/svg" viewBox="0 0 128 128"><path fill="#00ADD8" d="M0 0h128v128H0z"/><path fill="#fff" d="M83.4 59c-2.3-3-5.2-5.1-8.7-6.3a19.7 19.7 0 0 0-10.7-1c-3.6.8-6.9 2.5-9.6 5c-2.7 2.5-4.8 5.7-5.9 9.3c-1.2 3.6-1.5 7.4-1 11.2c.5 3.8 2 7.4 4.3 10.4c2.3 3 5.2 5.1 8.7 6.3c3.5 1.2 7.2 1.5 10.7 1c3.6-.8 6.9-2.5 9.6-5c2.7-2.5 4.8-5.7 5.9-9.3c1.2-3.6 1.5-7.4 1-11.2c-.5-3.8-2-7.4-4.3-10.4m-12.7 25.1c-2.7 2-5.9 3.1-9.2 3c-3.3-.1-6.5-1.2-9-3.2c-2.5-2-4.4-4.7-5.4-7.8c-1-3.1-1.1-6.4-.3-9.6c.8-3.2 2.6-6.1 5.1-8.3c2.5-2.2 5.6-3.7 9-4.1c3.4-.4 6.8.2 9.8 1.8c.8.4 1.2 1.4.8 2.2a1.2 1.2 0 0 1-2.2-.8c-2.4-1.3-5.2-1.7-7.9-1.3c-2.7.4-5.2 1.6-7.1 3.4c-2 1.8-3.4 4.2-4 6.8c-.6 2.6-.5 5.4.3 8c.8 2.6 2.4 4.9 4.6 6.5c2.2 1.6 4.8 2.5 7.6 2.5c2.8 0 5.5-1 7.7-2.8c.8-.6 1.9-.3 2.5.5c.6.8.3 1.9-.5 2.5z"/><path fill="#fff" d="M110.1 76.8h-4.3v-4.7c0-1.1-.9-2-2-2s-2 .9-2 2v4.7h-4.3c-1.1 0-2 .9-2 2s.9 2 2 2h4.3v4.7c0 1.1.9 2 2 2s2-.9 2-2v-4.7h4.3c1.1 0 2-.9 2-2s-.9-2-2-2z"/><path fill="#fff" d="M109.9 61c-.5-1-1.6-1.5-2.6-1.1c-1 .5-1.5 1.6-1.1 2.6l4.2 10.3h-10c-1.1 0-2 .9-2 2s.9 2 2 2h12.5c.8 0 1.5-.4 1.8-1.2s.1-1.6-.6-2.2z"/></svg>