<svg width="256" height="256" viewBox="0 0 256 256" fill="none" xmlns="http://www.w3.org/2000/svg">
<g clip-path="url(#clip0_103_14)">
<path d="M174.4 195.2C164.8 212.8 147.2 224 128 224C97.6 224 72 200 68.8 171.2C67.2 171.2 65.6 171.2 64 171.2C38.4 171.2 17.6 150.4 17.6 124.8C17.6 100.8 36.8 80 60.8 80C68.8 56 92.8 40 120 40C148.8 40 172.8 57.6 182.4 83.2C190.4 83.2 196.8 89.6 196.8 97.6C196.8 102.4 195.2 107.2 192 110.4C208 116.8 219.2 132.8 219.2 152C219.2 176 200 195.2 174.4 195.2Z" fill="#4285F4"/>
<path d="M179.2 112C179.2 92.8 163.2 76.8 144 76.8C129.6 76.8 116.8 86.4 112 99.2C112 99.2 112 99.2 112 99.2C116.8 86.4 129.6 76.8 144 76.8C163.2 76.8 179.2 92.8 179.2 112" fill="#1A73E8"/>
<path d="M174.4 195.2C164.8 212.8 147.2 224 128 224C97.6 224 72 200 68.8 171.2C67.2 171.2 65.6 171.2 64 171.2C38.4 171.2 17.6 150.4 17.6 124.8C17.6 100.8 36.8 80 60.8 80C68.8 56 92.8 40 120 40C148.8 40 172.8 57.6 182.4 83.2C190.4 83.2 196.8 89.6 196.8 97.6C196.8 102.4 195.2 107.2 192 110.4C208 116.8 219.2 132.8 219.2 152C219.2 176 200 195.2 174.4 195.2Z" fill-opacity="0.1" fill="black"/>
<g filter="url(#filter0_d_103_14)">
<path d="M132.8 113.6C147.2 113.6 158.4 124.8 158.4 139.2C158.4 153.6 147.2 164.8 132.8 164.8C118.4 164.8 107.2 153.6 107.2 139.2C107.2 124.8 118.4 113.6 132.8 113.6Z" fill="#1A73E8"/>
</g>
<path d="M129.6 113.6C142.4 113.6 153.6 124.8 153.6 137.6C153.6 150.4 142.4 161.6 129.6 161.6C116.8 161.6 105.6 150.4 105.6 137.6C105.6 124.8 116.8 113.6 129.6 113.6Z" fill="#4285F4"/>
<path d="M129.6 113.6C142.4 113.6 153.6 124.8 153.6 137.6C153.6 150.4 142.4 161.6 129.6 161.6C116.8 161.6 105.6 150.4 105.6 137.6C105.6 124.8 116.8 113.6 129.6 113.6Z" fill-opacity="0.2" fill="black"/>
<path d="M126.4 126.4C128 126.4 129.6 128 129.6 129.6V142.4C129.6 144 128 145.6 126.4 145.6H116.8C115.2 145.6 113.6 144 113.6 142.4V129.6C113.6 128 115.2 126.4 116.8 126.4H126.4Z" fill="#F4B400"/>
<path d="M140.8 126.4C142.4 126.4 144 128 144 129.6V142.4C144 144 142.4 145.6 140.8 145.6H131.2C129.6 145.6 128 144 128 142.4V129.6C128 128 129.6 126.4 131.2 126.4H140.8Z" fill="#0F9D58"/>
<path d="M155.2 126.4C156.8 126.4 158.4 128 158.4 129.6V142.4C158.4 144 156.8 145.6 155.2 145.6H145.6C144 145.6 142.4 144 142.4 142.4V129.6C142.4 128 144 126.4 145.6 126.4H155.2Z" fill="#DB4437"/>
</g>
<defs>
<filter id="filter0_d_103_14" x="103.2" y="110.4" width="61.6" height="61.6" filterUnits="userSpaceOnUse" color-interpolation-filters="sRGB">
<feFlood flood-opacity="0" result="BackgroundImageFix"/>
<feColorMatrix in="SourceAlpha" type="matrix" values="0 0 0 0 0 0 0 0 0 0 0 0 0 0 0 0 0 0 127 0" result="hardAlpha"/>
<feOffset dy="0.8"/>
<feGaussianBlur stdDeviation="1.6"/>
<feComposite in2="hardAlpha" operator="out"/>
<feColorMatrix type="matrix" values="0 0 0 0 0 0 0 0 0 0 0 0 0 0 0 0 0 0 0.1 0"/>
<feBlend mode="normal" in2="BackgroundImageFix" result="effect1_dropShadow_103_14"/>
<feBlend mode="normal" in="SourceGraphic" in2="effect1_dropShadow_103_14" result="shape"/>
</filter>
<clipPath id="clip0_103_14">
<rect width="256" height="256" fill="white"/>
</clipPath>
</defs>
</svg>
