<svg xmlns="http://www.w3.org/2000/svg" viewBox="0 0 128 128"><path fill="#5382a1" d="M101.5 69.4c0 3.8-3.4 6.8-7.7 6.8c-2.9 0-5.4-.9-7-2.3c-1.3 1.2-3.1 2-5.2 2c-3.1 0-5.8-2-6.5-4.8c-.7-2.5-.2-5.1 1.5-6.8c1.6-1.6 4-2.5 6.5-2.5c2.3 0 4.3 1 5.9 2.5c1.1-2.9 4-5.1 7.3-5.1c4.3 0 7.7 3.1 7.7 6.9m-14.7 0c-3.2 0-5.9 2.6-5.9 5.8c0 3.2 2.6 5.8 5.9 5.8s5.9-2.6 5.9-5.8c0-3.2-2.7-5.8-5.9-5.8"/><path fill="#f89820" d="M109 46.2c0-2.4-1.9-4.3-4.3-4.3c-1.8 0-3.4.6-4.5 1.5c-.8-.8-2-1.3-3.3-1.3c-2 0-3.7 1.3-4.2 3.1c-.4-1.6-.6-3.3-.6-5.1c0-6 4.9-10.9 10.9-10.9c6.1 0 11 4.9 11 10.9c.1 2.2-.6 4.3-1.8 6.1c-1 1.4-2.5 2.3-4.2 2.3m-9.5 0c-2.1 0-3.8-1.7-3.8-3.7c0-2.1 1.7-3.7 3.8-3.7s3.8 1.7 3.8 3.7c0 2-1.7 3.7-3.8 3.7"/><path fill="#5382a1" d="M57.6 77.2c-5.8 0-10.6-4.8-10.6-10.6c0-5.9 4.8-10.7 10.6-10.7c4.6 0 8.5 2.9 10 7c.4.9.6 1.9.6 2.9v1.3c0 5.9-4.8 10.7-10.6 10.7m.1-17.7c-3.9 0-7 3.1-7 7s3.1 7 7 7s7-3.1 7-7c-.1-3.9-3.2-7-7-7"/><path fill="#f89820" d="M53.1 46.2c-1.5 0-2.8-.7-3.7-1.8c-1.2-1.5-1.9-3.3-1.9-5.3c0-4.6 3.7-8.3 8.3-8.3c4.6 0 8.3 3.7 8.3 8.3c0 2-.7 3.9-1.9 5.3c-.9 1.1-2.2 1.8-3.7 1.8c-2.7 0-4.9-2.2-4.9-4.9c0-2.7 2.2-4.9 4.9-4.9c.5 0 .9.4.9.9s-.4.9-.9.9c-1.7 0-3.1 1.4-3.1 3.1c0 1.7 1.4 3.1 3.1 3.1c1.7 0 3.1-1.4 3.1-3.1c0-2-1.7-3.7-3.8-3.7c-2.1 0-3.8 1.7-3.8 3.7c0 .9.3 1.7.9 2.3c.5.5 1.1.8 1.8.8c1.3 0 2.4-1.1 2.4-2.4c0-.5.4-.9.9-.9s.9.4.9.9c0 2.2-1.8 4.2-4.2 4.2"/><path fill="#5382a1" d="M26.5 69.4c0 3.8-3.4 6.8-7.7 6.8c-2.9 0-5.4-.9-7-2.3c-1.3 1.2-3.1 2-5.2 2c-3.1 0-5.8-2-6.5-4.8c-.7-2.5-.2-5.1 1.5-6.8c1.6-1.6 4-2.5 6.5-2.5c2.3 0 4.3 1 5.9 2.5c1.1-2.9 4-5.1 7.3-5.1c4.3 0 7.7 3.1 7.7 6.9m-14.7 0c-3.2 0-5.9 2.6-5.9 5.8c0 3.2 2.6 5.8 5.9 5.8s5.9-2.6 5.9-5.8c0-3.2-2.7-5.8-5.9-5.8"/><path fill="#f89820" d="M34 46.2c0-2.4-1.9-4.3-4.3-4.3c-1.8 0-3.4.6-4.5 1.5c-.8-.8-2-1.3-3.3-1.3c-2 0-3.7 1.3-4.2 3.1c-.4-1.6-.6-3.3-.6-5.1c0-6 4.9-10.9 10.9-10.9c6.1 0 11 4.9 11 10.9c.1 2.2-.6 4.3-1.8 6.1c-1 1.4-2.5 2.3-4.2 2.3m-9.5 0c-2.1 0-3.8-1.7-3.8-3.7c0-2.1 1.7-3.7 3.8-3.7s3.8 1.7 3.8 3.7c0 2-1.7 3.7-3.8 3.7"/><path fill="#5382a1" d="M72.7 46.3c0-2.8-2.3-5.1-5.1-5.1c-1.2 0-2.3.4-3.1.9c-.6-.7-1.4-1.1-2.4-1.1c-1.7 0-3.1 1.4-3.1 3.1c0 .2 0 .4.1.6c-2 .1-3.6 1.8-3.6 3.8c0 1.9 1.4 3.4 3.2 3.7c.2.9.6 1.7 1.2 2.4c.8 1 2 1.6 3.3 1.6c2.8 0 5.1-2.3 5.1-5.1m-8.2 2.4c-1.2 0-2.2-.9-2.2-2.2c0-1.2.9-2.2 2.2-2.2c1.2 0 2.2.9 2.2 2.2c0 1.2-1 2.2-2.2 2.2"/></svg>