<svg xmlns="http://www.w3.org/2000/svg" viewBox="0 0 128 128"><path fill="#F7DF1E" d="M0 0h128v128H0z"/><path d="M41 99.5c-4.4 0-7-2.3-7-6.2c0-3.3 1.9-5.4 6.7-7.6l4-1.8c4-1.8 5.2-3 5.2-4.9c0-1.9-1.3-2.9-4-2.9c-2.8 0-4.9 1-6.1 2.4l-4.7-3.7c2.2-3.1 5.9-5.1 11.2-5.1c6.1 0 9.8 3.2 9.8 8c0 4.8-2.5 7.4-8.2 10.1l-3.8 1.7c-3.1 1.4-4.2 2.5-4.2 4.1c0 1.8 1.3 2.7 3.5 2.7c2.6 0 4.5-1.1 5.7-2.6l4.6 3.8c-2.3 3.3-6.1 5.4-10.6 5.4zm34.2 1.3c6.9 0 11.8-4.2 11.8-11.4c0-7.8-5.3-11.5-12.3-11.5c-4.4 0-7.5 1.5-9.8 4.2l5.1 3.5c1.4-1.7 2.8-2.5 4.8-2.5c4 0 6.1 2.2 6.1 6.3c0 4.7-2.7 6.8-6.9 6.8c-3.3 0-5.2-1.2-6.5-3l-5.1 3.5c2.9 4 7.2 5.1 12.5 5.1z"/></svg>