<svg width="256" height="256" viewBox="0 0 256 256" fill="none" xmlns="http://www.w3.org/2000/svg">
<path d="M0 0H256V256H0V0Z" fill="#F7DF1E"/>
<path d="M112 180H88C88 193.6 98.4 201.6 110.4 201.6C122.4 201.6 131.2 194.4 131.2 185.6C131.2 177.6 125.6 172.8 116 168L104.8 162.4C92.8 156 86.4 148 86.4 134.4C86.4 119.2 99.2 108 116 108C132.8 108 144.8 118.4 144.8 133.6H120.8C120.8 126.4 119.2 121.6 115.2 121.6C112 121.6 109.6 124 109.6 127.2C109.6 132 112.8 134.4 120 138.4L131.2 144C144.8 151.2 152 160 152 175.2C152 192.8 136 204 116 204C95.2 204 80 192 80 180H112V180.8V180Z" fill="black"/>
<path d="M192.8 202.4C208.8 202.4 220 191.2 220 176C220 160.8 208.8 149.6 192.8 149.6C176.8 149.6 165.6 160.8 165.6 176C165.6 191.2 176.8 202.4 192.8 202.4ZM192.8 190.4C184.8 190.4 179.2 184.8 179.2 176C179.2 167.2 184.8 161.6 192.8 161.6C200.8 161.6 206.4 167.2 206.4 176C206.4 184.8 200.8 190.4 192.8 190.4Z" fill="black"/>
</svg>
