<svg width="256" height="256" viewBox="0 0 256 256" fill="none" xmlns="http://www.w3.org/2000/svg">
<g clip-path="url(#clip0_103_17)">
<path d="M128 32L40 72V152L128 192L216 152V72L128 32Z" fill="#D24939"/>
<path d="M128 32L40 72V152L128 192L216 152V72L128 32Z" fill="black" fill-opacity="0.2"/>
<path d="M128 192V224L216 184V152L128 192Z" fill="#D24939"/>
<path d="M128 192V224L216 184V152L128 192Z" fill="black" fill-opacity="0.2"/>
<path d="M40 152L128 192V224L40 184V152Z" fill="#F0C654"/>
<path d="M40 152L128 192V224L40 184V152Z" fill="black" fill-opacity="0.2"/>
<path d="M128 32V64L216 104V72L128 32Z" fill="#40536D"/>
<path d="M128 32V64L216 104V72L128 32Z" fill="black" fill-opacity="0.2"/>
<path d="M40 72L128 32V64L40 104V72Z" fill="#607993"/>
<path d="M40 72L128 32V64L40 104V72Z" fill="black" fill-opacity="0.2"/>
<path d="M128 104C137.6 104 145.6 96 145.6 86.4C145.6 76.8 137.6 68.8 128 68.8C118.4 68.8 110.4 76.8 110.4 86.4C110.4 96 118.4 104 128 104Z" fill="#F0C654"/>
<path d="M128 104C137.6 104 145.6 96 145.6 86.4C145.6 76.8 137.6 68.8 128 68.8C118.4 68.8 110.4 76.8 110.4 86.4C110.4 96 118.4 104 128 104Z" fill="black" fill-opacity="0.2"/>
<path d="M128 152C137.6 152 145.6 144 145.6 134.4C145.6 124.8 137.6 116.8 128 116.8C118.4 116.8 110.4 124.8 110.4 134.4C110.4 144 118.4 152 128 152Z" fill="#40536D"/>
<path d="M128 152C137.6 152 145.6 144 145.6 134.4C145.6 124.8 137.6 116.8 128 116.8C118.4 116.8 110.4 124.8 110.4 134.4C110.4 144 118.4 152 128 152Z" fill="black" fill-opacity="0.2"/>
</g>
<defs>
<clipPath id="clip0_103_17">
<rect width="256" height="256" fill="white"/>
</clipPath>
</defs>
</svg>
