<svg xmlns="http://www.w3.org/2000/svg" viewBox="0 0 128 128"><path fill="#326CE5" d="M124.9 50.8L83 23.4l-7.4 7.3l20.4 13.9l.1 42l-20.3 13.9l7.4 7.3l31.7-27.4a12.6 12.6 0 0 0 0-21.8z"/><path fill="#326CE5" d="M45.1 23.4L3.2 50.8a12.6 12.6 0 0 0 0 21.8l31.7 27.4l7.4-7.3L21.9 81l-.1-42l20.3-13.9l-7.3-7.3l.3-0.4z"/><path fill="#326CE5" d="M64 4c-5.7 0-10.4 4.7-10.4 10.4v20.4l-20.5 14L22.9 64l10.2 15.2l20.5 14v20.4c0 5.7 4.7 10.4 10.4 10.4s10.4-4.7 10.4-10.4V83.2L95.1 64L84.8 48.8l-10.4-7.1V14.4C74.4 8.7 69.7 4 64 4zm0 24.3l15.1 10.2l-15.1 10.1l-15.1-10.1L64 28.3zm0 50.2l15.1 10.1l-15.1 10.2l-15.1-10.2L64 78.5z"/></svg>