<svg xmlns="http://www.w3.org/2000/svg" viewBox="0 0 128 128"><path fill="#F05340" d="m117.5 75.2l-13-13.8L59.3 90.5l14 15.3l37.8-15.8c4-1.6 6.3-5.8 4.4-9.8M25.5 28.7l-15 15.8c-2 4 0.3 8.2 4.4 9.8L52.7 69l13.9-15.2L25.5 28.7m45.3 35l-7.8-8.4l29.2-31c2-2 4.8-2.6 7.4-1.6l15 5.9c2.6 1 4.5 3.1 4.9 5.8c0.4 2.7-0.7 5.5-2.7 7.3l-29 29.8m-17.8 8.6L44.8 81L23.7 93.4l7.8 8.4l19.5-12.2l-7.7-8.4zm40.3-43.2l-7.8-8.4L86.2 39l7.8 8.4l-11-7.1zM51.6 57.3L64 42.1L56.2 34l-13 13.8zM42.3 87.5l-7.8-8.4L23 88.5l7.8 8.4z"/></svg>