<svg xmlns="http://www.w3.org/2000/svg" width="256" height="256" viewBox="0 0 256 256"><path fill="#000080" d="M0 0h256v256H0z"/><path fill="#fff" d="M182.25 210.05c-15.65 0-31.3-3.05-45.55-9.45c-2.3-1-3.65-3.3-3.65-5.85V66.25c0-4.6 5.5-7.45 9.45-5.3l119.5 65.55c3.85 2.1 3.85 7.55 0 9.65l-22.35 12.2c-1.4.75-3.15.2-3.9-1.2L199.1 86.1L95.8 143.6c-20.9 11.5-45.3 11.4-66.2-.2L19.4 137.2c-3.85-2.1-3.85-7.55 0-9.7l22.4-12.2c1.4-.75 3.15-.2 3.9 1.25l10.95 21.65l.2.35c18.1 31.35 53.65 41.5 84.95 23.4L182.25 141l-24.8-43.05c-15.6-27.1-46.7-44.85-80.4-44.85H19.4c-4.4 0-8 3.6-8 8v12.2c0 4.4 3.6 8 8 8h57.65c22.1 0 42.4 10.9 54.35 29.5l24.75 42.9l-40.35 22.15c-3.85 2.1-3.85 7.55 0 9.7l22.35 12.2c1.4.75 3.15.2 3.9-1.25l18.45-36.4l28.6 15.7c14.2 7.8 30.15 11.65 46.85 11.65h53.5c4.4 0 8-3.6 8-8v-12.2c0-4.4-3.6-8-8-8h-53.5z"/></svg>