<svg xmlns="http://www.w3.org/2000/svg" width="256" height="256" viewBox="0 0 24 24"><path fill="#003545" d="M11.996 2C6.474 2 2 6.476 2 12.003C2 17.525 6.474 22 11.996 22c5.527 0 10.004-4.475 10.004-9.997c0-5.527-4.477-10.003-10.004-10.003M12 3.82c4.52 0 8.18 3.663 8.18 8.183c0 4.52-3.66 8.18-8.18 8.18c-4.522 0-8.184-3.66-8.184-8.18c0-4.52 3.662-8.183 8.184-8.183m-3.218 3.192v2.53h-.91v1.39h.91v2.85c0 2.21 1.056 3.27 3.32 3.27c.677 0 1.3-.12 1.83-.32l-.4-1.42c-.4.16-.85.25-1.39.25c-1.103 0-1.74-.53-1.74-1.77v-2.86h3.13v-1.39h-3.13v-2.53h-1.64Z"/></svg>