<svg xmlns="http://www.w3.org/2000/svg" width="256" height="256" viewBox="0 0 512 512"><path fill="#0076a8" d="M224.3 268.4l-64 168.3c-4.5 12.9 8.2 24.1 20.2 18.2l175-87.3c11.9-5.9 11.9-22.1 0-28.1L224.3 268.4z"/><path fill="#2d643d" d="M246.3 32.5c-15.6-11.2-37.4-4-41.9 13.5L80.1 346.5c-4.5 17.5 12.6 32.5 29.4 24.8l136.6-62.8l93.3-219.7c4.5-17.5-12.6-32.5-29.4-24.8L246.3 32.5z"/><path fill="#e17716" d="M473.1 315.6c-4.3-1.6-9.1.7-10.7 5.1L387.2 489.1c-1.6 4.3.7 9.1 5.1 10.7c4.3 1.6 9.1-.7 10.7-5.1l75.2-168.4c1.6-4.3-.7-9.2-5.1-10.7z"/></svg>