<svg width="256" height="256" viewBox="0 0 256 256" fill="none" xmlns="http://www.w3.org/2000/svg">
<g clip-path="url(#clip0_103_22)">
<path d="M128 28.8C128 28.8 88 49.6 88 100.8C88 128 102.4 172.8 128 227.2C153.6 172.8 168 128 168 100.8C168 49.6 128 28.8 128 28.8Z" fill="#10AA50"/>
<path d="M128 28.8C128 28.8 168 49.6 168 100.8C168 128 153.6 172.8 128 227.2V28.8Z" fill="#138D48"/>
<path d="M128 123.2C137.28 123.2 144.96 115.52 144.96 106.24C144.96 96.96 137.28 89.28 128 89.28C118.72 89.28 111.04 96.96 111.04 106.24C111.04 115.52 118.72 123.2 128 123.2Z" fill="#F9F4F4"/>
<path d="M128 123.2C137.28 123.2 144.96 115.52 144.96 106.24C144.96 96.96 137.28 89.28 128 89.28V123.2Z" fill="white"/>
</g>
<defs>
<clipPath id="clip0_103_22">
<rect width="256" height="256" fill="white"/>
</clipPath>
</defs>
</svg>
