<svg role="img" viewBox="0 0 24 24" xmlns="http://www.w3.org/2000/svg"><title>MongoDB</title><path d="M12 0C7.304 0 4.223 3.34 4.223 7.82c0 3.332 2.64 6.13 6.13 6.945-1.12-1.74-1.393-4.13-.8-6.13C10.05 6.44 11.83 4.96 14.15 4.96c.334 0 .667.02.99.07.25.04.5.1.73.18.28.1.53.22.78.36.25.14.5.3.73.47.24.18.46.38.67.6.2.22.39.46.56.72.16.26.3.54.43.84.13.3.23.62.32.95.08.33.13.67.16 1.02.03.35.05.7.05 1.06 0 4.14-2.63 7.5-6.63 7.5-3.03 0-5.11-1.72-5.11-3.9 0-1.57.8-2.6 1.7-2.6.72 0 1.25.46 1.25 1.3 0 1.34-1.35 1.83-1.35 3.08 0 .84.55 1.25 1.1 1.25 1.34 0 2.22-1.4 2.22-3.46 0-2.07-1.1-3.66-3.1-3.66-2.43 0-4.32 1.8-4.32 4.46 0 2.27 1.25 4.9 4.15 4.9 3.24 0 6.82-2.3 6.82-7.53 0-4.48-2.92-7.82-7.1-7.82"/></svg>