<svg xmlns="http://www.w3.org/2000/svg" viewBox="0 0 128 128"><path fill="#47A248" d="M64 128c35.4 0 64-28.6 64-64S99.4 0 64 0S0 28.6 0 64s28.6 64 64 64"/><path fill="#FFF" d="M64.2 19c-21.5 0-31.5 12.3-34.1 22.1c-.2.7-.4 1.5-.4 2.2c0 2 0 4.1 0 6.1c.1 2.3.3 4.5.6 6.7c.5 4 1.5 7.8 3.1 11.2c4.4 9.6 13.1 12.6 15.8 13.5c1.8.6 3.5.9 4.7.9c10.3 0 20.4-12.8 20.4-28.7c0-10.4-3.1-19-9-25.1c-1.8-1.9-3.9-3.4-6.3-4.6c-1-.5-2-1-3-1.4c-2.4-1-5.1-1.6-8.2-1.6zm-1.8 4c2.8 0 5.4.5 7.6 1.4c3.9 1.6 6.9 4.7 6.9 10.3c0 9.1-7.1 22-17.6 22c-.6 0-1.1-.1-1.4-.2c-3.1-.9-8-3.4-11.1-10.1c-.8-1.7-1.4-3.6-1.7-5.5c-.3-1.8-.4-3.6-.4-5.5c0-1.6 0-3.3.1-4.9c.2-2.1.6-4.1 1.2-6.1c1.2-4.1 4-8.8 8.4-8.8z"/></svg>