<svg xmlns="http://www.w3.org/2000/svg" viewBox="0 0 128 128"><path fill="#4479A1" d="M121.2 59.5c0-21.4-23.3-33-57.2-33S7.1 38.1 7.1 59.5c0 14.5 13.7 26.5 35.8 31.4l-3.3 12.5c-30-5.7-42.3-21.2-42.3-38.3C-2.7 34.3 27.5 11 64.3 11s67 23.3 67 54.1c0 17.5-12.6 32.7-42.3 38.2l-3.3-12.5c22.1-4.9 35.5-16.9 35.5-31.3"/><path fill="#4479A1" d="M64 54.3c-23.7 0-42.9 8.1-42.9 18.2S40.3 90.7 64 90.7s42.9-8.1 42.9-18.2S87.7 54.3 64 54.3m0 29.8c-18.2 0-33-5.2-33-11.6s14.8-11.6 33-11.6s33 5.2 33 11.6-14.8 11.6-33 11.6"/><path fill="#F29111" d="M83.4 46.2c0 2-1 3.8-2.6 5.1V31.9c1.6 1.2 2.6 3.1 2.6 5.1v9.2zm-38.5 0V31.9c1.6 1.3 2.6 3.1 2.6 5.1v9.2c0 2-1 3.8-2.6 5.1z"/><path fill="#F29111" d="M64.3 75c-15 0-27.2-3.8-27.2-8.5s12.2-8.5 27.2-8.5s27.2 3.8 27.2 8.5-12.2 8.5-27.2 8.5M84 72.5v12.2c0 3.3-1.8 4.7-4.1 4.7s-4.1-1.4-4.1-4.7V72.5a28 28 0 0 1-11.5 2.1c-7.3 0-13.6-1.5-18-4.1l1.5-6.5c4.7 2.4 10.3 3.7 16.5 3.7c5.2 0 9.8-1 13.9-2.9l-2.1-40.4H55.4L53.7 47c1.3.1 2.6.2 3.9.2c4.4 0 8.5-.6 12.2-1.8V31.9c1.6-1.2 2.6-3.1 2.6-5.1c0-2-1-3.8-2.6-5.1V10.2l-9-2.6v15.6c-4.4 1.3-8.4 3.3-11.6 5.9l-2.6-6.4c5.1-3.1 11-5.4 17.6-6.5V2.5L64.3 0l2.3 6.6c6.6 1.1 12.5 3.4 17.6 6.5l-2.6 6.4c-3.2-2.6-7.2-4.7-11.6-5.9v4.2c4.3 1.1 8.1 3 11.2 5.6l2.6-6.6c-5-2.9-10.7-5-17.1-6.1V0L81.2 2.5l-1.3 14.1c6.5 1.1 12.4 3.2 17.6 6.4l-2.6 6.5c-4.7-2.9-10-5-15.6-5.9V45c6.5 2 11.9 5.3 15.9 9.5l2.7-6.2C92.2 41.2 85.5 36.3 78 34v13.3c3.7 1.2 7.1 3 9.8 5.4l1.3-6.5c-2.4-2.1-5.3-3.8-8.4-4.9V31.9c1.6-1.2 2.6-3.1 2.6-5.1c0-2-1-3.8-2.6-5.1V10.2l9-2.6v15.6c4.4 1.3 8.4 3.3 11.6 5.9l2.6-6.4c-5.1-3.1-11-5.4-17.6-6.5V2.5l4.7 1.3l-2.3 6.6c6.6 1.1 12.5 3.4 17.6 6.5l-2.6 6.4c-3.2-2.6-7.2-4.7-11.6-5.9v4.2c4.3 1.1 8.1 3 11.2 5.6l2.6-6.6c-5-2.9-10.7-5-17.1-6.1V0l4.7 2.5v14.1c6.5 1.1 12.4 3.2 17.6 6.4l-2.6 6.5c-4.7-2.9-10-5-15.6-5.9V45c11.1 2.9 19.3 8.8 23.3 16.5l2.6-6.1C107.8 45.3 97.4 38.2 84 34.9V71c4.1 2 7.5 4.6 10.1 7.6l2.6-6.2c-2.4-2.7-5.5-5-9-6.7v-1.2c7.2 2.7 12.5 8 15.1 14.8l2.6-6.2c-2.9-7.5-8.8-13.4-16.4-16.6v-1.1c5.2 2.4 9.1 6.5 11.1 11.5l2.6-6.2C101 64.9 94.7 59 86.8 56.4V71c13.7 4.1 23.8 13.9 23.8 25.3v.1c0 3.3-1.8 4.7-4.1 4.7s-4.1-1.4-4.1-4.7V85c-3.9 4.7-9.8 7.6-16.5 7.6s-12.6-2.9-16.5-7.6v1.5c0 3.3-1.8 4.7-4.1 4.7s-4.1-1.4-4.1-4.7V72.5a28 28 0 0 1-11.5 2.1c-7.3 0-13.6-1.5-18-4.1l1.5-6.5c4.7 2.4 10.3 3.7 16.5 3.7c5.2 0 9.8-1 13.9-2.9l-2.1-40.4H38.2L36.5 47c1.3.1 2.6.2 3.9.2c4.4 0 8.5-.6 12.2-1.8V31.9c1.6-1.2 2.6-3.1 2.6-5.1c0-2-1-3.8-2.6-5.1V10.2l-9-2.6v15.6c-4.4 1.3-8.4 3.3-11.6 5.9l-2.6-6.4c5.1-3.1 11-5.4 17.6-6.5V2.5l-4.7 1.3 2.3 6.6c-6.6-1.1-12.5-3.4-17.6-6.5l2.6 6.4c3.2-2.6 7.2-4.7 11.6-5.9v-4.2c-4.3 1.1-8.1 3-11.2 5.6l-2.6-6.6c5-2.9 10.7-5 17.1-6.1V2.5L31.3 0l-2.3 6.6c-6.6 1.1-12.5 3.4-17.6 6.5l2.6 6.4c4.7-2.9 10-5 15.6 5.9V22.7c-11.1-2.9-19.3-8.8-23.3-16.5l-2.6 6.1c5.1 10.1 15.5 17.2 28.9 20.5v12.2c-7.2-2.7-12.5-8-15.1-14.8l-2.6 6.2c2.9 7.5 8.8 13.4 16.4 16.6v1.1c-5.2-2.4-9.1-6.5-11.1-11.5l-2.6 6.2c3.4 8.7 10.1 14.6 18.5 17.2v1c-13.7-4.1-23.8-13.9-23.8-25.3z"/></svg>