<svg width="256" height="256" viewBox="0 0 256 256" fill="none" xmlns="http://www.w3.org/2000/svg">
<path d="M104 100.8V32C104 14.4 118.4 0 136 0C153.6 0 168 14.4 168 32V100.8C168 108.8 161.6 115.2 153.6 115.2H145.6V123.2H153.6C170.4 123.2 184 136.8 184 153.6V160H160C160 148.8 150.4 140.8 140.8 139.2C137.6 139.2 134.4 139.2 131.2 139.2C128 139.2 126.4 139.2 123.2 139.2C112 140.8 102.4 148.8 102.4 160H80V153.6C80 136.8 92.8 123.2 108.8 123.2H116.8V115.2H108.8C105.6 115.2 104 113.6 104 110.4V100.8Z" fill="#00758F"/>
<path d="M129.6 177.6H107.2L91.2 225.6H113.6L116.8 214.4H144L147.2 225.6H169.6L153.6 177.6H129.6ZM120 203.2L129.6 182.4L140.8 203.2H120Z" fill="#F29111"/>
<path d="M152 32C152 23.2 144.8 16 136 16C127.2 16 120 23.2 120 32V100.8C120 102.4 121.6 104 123.2 104H148.8C150.4 104 152 102.4 152 100.8V32Z" fill="#5382A1"/>
<path d="M145.6 123.2V115.2H108.8C105.6 115.2 104 113.6 104 110.4V100.8C104 92.8 102.4 86.4 99.2 80H80V153.6C80 170.4 92.8 184 108.8 184H153.6C170.4 184 184 170.4 184 153.6V80H164.8C161.6 86.4 160 92.8 160 100.8V110.4C160 113.6 158.4 115.2 155.2 115.2H145.6V123.2H153.6C170.4 123.2 184 136.8 184 153.6V160H208V153.6C208 128 185.6 107.2 160 107.2V32C160 19.2 171.2 8 184 8H208V0H184C161.6 0 144 19.2 144 43.2C144 19.2 126.4 0 104 0H80V8H104C115.2 8 126.4 19.2 126.4 32V107.2C100.8 107.2 80 128 80 153.6V160H56V153.6C56 136.8 69.6 123.2 86.4 123.2H94.4V115.2H86.4C77.6 115.2 72 109.6 72 100.8V32C72 14.4 57.6 0 40 0C22.4 0 8 14.4 8 32V248H32V184H56V248H80V184H184V248H208V184H232V248H256V32C256 14.4 241.6 0 224 0C206.4 0 192 14.4 192 32V100.8C192 109.6 186.4 115.2 177.6 115.2H168V123.2H177.6C186.4 123.2 192 128.8 192 137.6V160H160C160 172 168 180.8 177.6 182.4H184V225.6H208V184H232V32C232 23.2 228.8 16 224 16C219.2 16 216 23.2 216 32V80H192V32Z" fill="#5382A1"/>
</g>
</svg>
