<svg role="img" viewBox="0 0 24 24" xmlns="http://www.w3.org/2000/svg"><title>MySQL</title><path d="M12.012 23.988c-1.17 0-2.34-.1-3.51-.3-5.22-1.02-9-5.52-9-10.98v-3.3c0-1.428.948-2.736 2.316-3.228L11.724.036c.192-.06.396-.06.588 0l9.912 3.144c1.368.492 2.316 1.8 2.316 3.228v3.3c0 5.46-3.78 9.96-9 10.98-.96.18-1.92.3-2.88.3zM12 1.8c-.012 0-.012 0 0 0zm-.012 20.388c4.86 0 8.688-4.008 8.952-8.88l.012-.42v-3.3c0-.756-.492-1.428-1.2-1.692l-7.764-2.46c-.036-.012-.072-.012-.108 0l-7.764 2.46c-.708.264-1.2 1.02-1.2 1.776v3.3c0 4.884 3.828 8.88 8.7 8.88zm4.452-13.62c.18-.324.036-.744-.324-.924-.324-.18-.744-.036-.924.324L12 15.6l-3.204-5.94c-.18-.36-.6-.48-.924-.324s-.48.6-.324.924l3.504 6.504c.156.288.492.444.816.396.324-.048.588-.3.684-.612l3.42-6.336zm-8.88 7.512c.36 0 .66-.288.66-.66V9.072c0-.36-.288-.66-.66-.66s-.66.288-.66.66v4.344h-.84V9.072c0-.36-.3-.66-.66-.66s-.66.3-.66.66v4.908c0 .876.72 1.596 1.596 1.596h1.56zm9.216-5.556c0-.36-.3-.66-.66-.66-.372 0-.672.3-.672.66v5.208c0 .36.3.66.672.66s.66-.3.66-.66v-5.208zM15.42 8.412c-.36 0-.66.3-.66.66v.66h.66c.36 0 .66-.3.66-.66s-.3-.66-.66-.66zm-1.32.66c0-.36-.3-.66-.66-.66s-.66.3-.66.66v4.56c0 .36.3.66.66.66s.66-.3.66-.66v-4.56z"/></svg>