<svg width="256" height="256" viewBox="0 0 256 256" fill="none" xmlns="http://www.w3.org/2000/svg">
<g clip-path="url(#clip0_103_26)">
<path d="M250.752 136.96L143.616 244.096C138.304 249.408 129.6 252.544 120.32 252.544C100.48 252.544 86.656 237.44 86.656 218.176V165.504L35.456 122.368C26.752 114.784 26.752 100.96 36.576 93.376L116.096 22.528C121.984 17.216 130.688 14.656 139.392 14.656C158.656 14.656 172.48 29.76 172.48 48.448V100.544L224.256 144.256C232.384 151.84 232.384 165.664 222.56 173.248L143.04 244.096C142.464 244.672 143.04 245.824 144.192 244.672L251.328 137.536C254.176 134.688 253.024 134.688 250.752 136.96Z" fill="#68A063"/>
<path d="M129.873 24.1866L42.2285 102.731C39.0223 105.419 39.4312 110.669 42.9234 112.924L87.4241 141.614V50.0886C87.4241 33.7431 100.08 21.0886 116.425 21.0886C122.215 21.0886 127.534 22.3831 129.873 24.1866Z" fill="#8CC84B"/>
<path d="M170.834 207.568V116.042C170.834 99.6969 158.179 87.0424 141.834 87.0424C136.044 87.0424 130.724 88.3369 128.385 90.1404L216.03 168.685C219.236 171.373 218.827 176.623 215.335 178.878L170.834 207.568Z" fill="#3C873A"/>
</g>
<defs>
<clipPath id="clip0_103_26">
<rect width="256" height="256" fill="white"/>
</clipPath>
</defs>
</svg>
