<svg xmlns="http://www.w3.org/2000/svg" viewBox="0 0 24 24"><path d="M11.7 19.3c-2.4-2-2-5.3.3-7l7.2-5.2c2.4-1.7 5.7-1.5 7.8.6 2.3 2.1 2.6 5.6.6 8l-7.2 5.2c-2.3 1.7-5.6 1.5-7.7-.6z" fill="#8CC84B"/><path d="M11.9 19.4c-2.4-2-2-5.3.3-7l6-4.3c2.4-1.7 5.7-1.5 7.8.6 2.3 2.1 2.6 5.6.6 8l-6 4.3c-2.3 1.7-5.6 1.5-7.7-.6z" fill="#68A063"/><path d="M12.5 1c-2.3-1-5 .2-6.5 2.2l-3 3.6c-1.5 2-1.4 4.8.3 6.5l.2.2c1.7 1.5 4.5 1.4 6.2-.3l3-3.6c1.7-2 1.6-4.8-.3-6.5zm-.4 10.2c-.8.7-2.1.6-2.8-.2l-3-3.6c-.8-.9-.7-2.3.2-3.1.9-.8 2.2-.7 3 .2l3 3.6c.8 1 .7 2.4-.2 3.1z" fill="#393"/><path d="M12.7 3.5C10.5 2.6 8.1 3.5 7 5.3l-.6.9c-1.1 1.8-1 4.2.4 5.8l.2.2c1.4 1.4 3.7 1.5 5.3.4l.6-.9c1.3-1.8 1.2-4.2-.2-5.8z" fill="#026e00"/></svg>