<svg xmlns="http://www.w3-org/2000/svg" width="24" height="24" viewBox="0 0 24 24" fill="currentColor"><path d="M14.209 13.25a.55.55 0 0 0 .584.555h4.414a.55.55 0 0 0 .584-.555v-4.414a.55.55 0 0 0-.584-.555h-4.414a.55.55 0 0 0-.584.555zM12 1.5c5.799 0 10.5 4.701 10.5 10.5S17.799 22.5 12 22.5 1.5 17.799 1.5 12 6.201 1.5 12 1.5zm-3.562 7.283a.55.55 0 0 0 .584.555h4.414a.55.55 0 0 0 .584-.555V4.369a.55.55 0 0 0-.584-.555H8.438a.55.55 0 0 0-.584.555zm-3.55 3.55a.55.55 0 0 0 .584.555h4.414a.55.55 0 0 0 .584-.555v-4.414a.55.55 0 0 0-.584-.555H4.888a.55.55 0 0 0-.584.555z"/></svg>
