<svg xmlns="http://www.w3.org/2000/svg" width="256" height="256" viewBox="0 0 256 256"><path fill="#000080" d="M128 128h128v128h-128z"/><path fill="none" stroke="#fff" stroke-width="15" d="M127 8.5C61.7 8.5 8.5 61.7 8.5 127c0 65.3 53.2 118.5 118.5 118.5c65.3 0 118.5-53.2 118.5-118.5C245.5 61.7 192.3 8.5 127 8.5Z"/><path fill="#fff" d="M115.3 118.1c-14.6-21.7-16-43.1-3.4-58.4c12.7-15.3 35.5-19.1 57.2-11.4c21.8 7.6 37.9 26.1 40.2 46.5c2.3 20.4-8.8 40.5-27.6 51.6c-19.9 11.7-44.4 10.6-61.9-2.5c-4.4-3.3-6-8.9-4.2-13.8c1.8-4.9 6.8-8.1 12.1-7.2c3.4.6 6.1 3 7.8 5.7c9.5 14.8 29.4 19.3 47.9 9.8c18.5-9.4 26.5-26.6 21.3-43.2c-5.2-16.6-22-29.3-41-31c-18.9-1.7-36.4 8.2-42.5 24.3c-2.3 6-7.9 9.7-14.2 9.2c-6.3-.5-11.3-5-12.7-10.9zm-4.7 101.4l-11-2.9c-10.9-2.9-16.7-14.1-13.8-25l24.4-91.8c2.9-10.9 14.1-16.7 25-13.8l11 2.9c10.9 2.9 16.7 14.1 13.8 25l-24.4 91.8c-2.9 10.9-14.1 16.7-25 13.8z"/></svg>