<svg width="256" height="256" viewBox="0 0 256 256" fill="none" xmlns="http://www.w3.org/2000/svg">
<g clip-path="url(#clip0_103_28)">
<ellipse cx="128" cy="128" rx="128" ry="128" fill="#777BB4"/>
<path d="M168.32 124.16C174.4 124.16 180.48 118.08 180.48 112C180.48 105.28 174.4 99.84 168.32 99.84H157.12V124.16H168.32ZM168.32 87.04H157.12V74.24H186.56C194.56 74.24 200.96 80.64 200.96 88.64V112C200.96 118.08 198.08 122.88 194.56 125.76C198.08 127.36 201.6 131.52 201.6 136.96V149.76H190.4V137.6C190.4 131.52 185.28 126.4 180.48 126.4H157.12V149.76H144.32V74.24H168.32V87.04Z" fill="white"/>
<path d="M106.88 124.16C112.96 124.16 119.04 118.08 119.04 112C119.04 105.28 112.96 99.84 106.88 99.84H95.68V124.16H106.88ZM106.88 87.04H95.68V74.24H125.12C133.12 74.24 139.52 80.64 139.52 88.64V112C139.52 118.08 136.64 122.88 133.12 125.76C136.64 127.36 140.16 131.52 140.16 136.96V149.76H128.96V137.6C128.96 131.52 123.84 126.4 119.04 126.4H95.68V149.76H82.88V74.24H106.88V87.04Z" fill="white"/>
<path d="M45.44 124.16C51.52 124.16 57.6 118.08 57.6 112C57.6 105.28 51.52 99.84 45.44 99.84H34.24V124.16H45.44ZM45.44 87.04H34.24V74.24H63.68C71.68 74.24 78.08 80.64 78.08 88.64V112C78.08 118.08 75.2 122.88 71.68 125.76C75.2 127.36 78.72 131.52 78.72 136.96V149.76H67.52V137.6C67.52 131.52 62.4 126.4 57.6 126.4H34.24V149.76H21.44V74.24H45.44V87.04Z" fill="white"/>
</g>
<defs>
<clipPath id="clip0_103_28">
<rect width="256" height="256" fill="white"/>
</clipPath>
</defs>
</svg>
