<svg width="256" height="256" viewBox="0 0 256 256" fill="none" xmlns="http://www.w3.org/2000/svg">
<g clip-path="url(#clip0_103_31)">
<path d="M107.2 256V148.8H51.2C19.2 148.8 0 131.2 0 107.2C0 83.2 19.2 64 51.2 64H107.2V0H203.2V107.2H256C288 107.2 307.2 124.8 307.2 148.8C307.2 172.8 288 192 256 192H203.2V256H107.2Z" fill="#3776AB"/>
<path d="M148.8 0V107.2H204.8C236.8 107.2 256 89.6 256 65.6C256 41.6 236.8 24 204.8 24H148.8V0Z" fill="#FFC43D"/>
<path d="M107.2 256V148.8H51.2C19.2 148.8 0 166.4 0 190.4C0 214.4 19.2 232 51.2 232H107.2V256Z" fill="#3776AB"/>
<path d="M148.8 128C148.8 137.6 140.8 145.6 131.2 145.6C121.6 145.6 113.6 137.6 113.6 128C113.6 118.4 121.6 110.4 131.2 110.4C140.8 110.4 148.8 118.4 148.8 128Z" fill="#3776AB"/>
<path d="M204.8 128C204.8 137.6 196.8 145.6 187.2 145.6C177.6 145.6 169.6 137.6 169.6 128C169.6 118.4 177.6 110.4 187.2 110.4C196.8 110.4 204.8 118.4 204.8 128Z" fill="#FFC43D"/>
</g>
<defs>
<clipPath id="clip0_103_31">
<rect width="256" height="256" fill="white"/>
</clipPath>
</defs>
</svg>
