<svg xmlns="http://www.w3.org/2000/svg" viewBox="0 0 128 128"><g fill-rule="evenodd" clip-rule="evenodd"><path fill="#3776AB" d="M64 128c35.4 0 64-28.6 64-64S99.4 0 64 0S0 28.6 0 64s28.6 64 64 64"/><path fill="#FFD43B" d="M83.4 83.2v-24h15.9c8.8 0 15.9-7.1 15.9-15.9v-27c0-8.8-7.1-15.9-15.9-15.9H59.2v15.9h24.1c4.4 0 7.9 3.6 7.9 7.9s-3.6 7.9-7.9 7.9H59.2v47h32.1c8.8 0 15.9-7.1 15.9-15.9s-7.1-15.9-15.9-15.9H67.4V83.2h16z"/><path fill="#fff" d="M107.3 16.3a8 8 0 1 1-16 0a8 8 0 0 1 16 0m-7.9 87.4a8 8 0 1 1-16 0a8 8 0 0 1 16 0"/><path fill="#306998" d="M44.6 44.8v24H28.7c-8.8 0-15.9 7.1-15.9 15.9v27c0 8.8 7.1 15.9 15.9 15.9h24.1v-15.9H28.7c-4.4 0-7.9-3.6-7.9-7.9s3.6-7.9 7.9-7.9h31.8v-47H36.7c-8.8 0-15.9 7.1-15.9 15.9S27.9 72.5 36.7 72.5h15.9v-11.8H44.6z"/></g></svg>