<svg xmlns="http://www.w3.org/2000/svg" viewBox="0 0 128 128"><g fill-rule="evenodd" clip-rule="evenodd"><path fill="#61DAFB" d="M64 128c35.4 0 64-28.6 64-64S99.4 0 64 0S0 28.6 0 64s28.6 64 64 64"/><path fill="#fff" d="M85.3 103c-2.4-1.3-4.3-3.2-5.7-5.5a18.3 18.3 0 0 1-2.2-8.5v-18c0-2 .4-4 1.1-5.8c1.3-3.2 3.8-5.7 7.2-7.1a18.3 18.3 0 0 1 8.5-2.2h18c2 0 4 .4 5.8 1.1c3.2 1.3 5.7 3.8 7.1 7.2a18.3 18.3 0 0 1 2.2 8.5v18c0 2-.4 4-1.1 5.8c-1.3 3.2-3.8 5.7-7.2 7.1a18.3 18.3 0 0 1-8.5 2.2h-18c-2 0-4-.4-5.8-1.1c-1.1-.5-2.2-1-3.2-1.7zm1.7-39.6c-.6 1.7-2 3-4 3.7c-2 .8-4.2.9-6.3.3c-2-.5-3.7-1.9-4.8-3.7c-1-1.7-1.3-3.7-1-5.7c.3-2 1.3-3.7 3-5c1.7-1.3 3.8-2 6-2c2.2 0 4.3.7 6 2c1.7 1.3 2.7 3 3 5c.3 2 .1 4-.9 5.7zm14.3-25.2c1.7 1.3 2.7 3 3 5c.3 2 .1 4-.9 5.7c-.6 1.7-2 3-4 3.7c-2 .8-4.2.9-6.3.3c-2-.5-3.7-1.9-4.8-3.7c-1-1.7-1.3-3.7-1-5.7c.3-2 1.3-3.7 3-5c1.7-1.3 3.8-2 6-2s4.3.7 6 2zm-14.3 50.4c-.6 1.7-2 3-4 3.7c-2 .8-4.2.9-6.3.3c-2-.5-3.7-1.9-4.8-3.7c-1-1.7-1.3-3.7-1-5.7c.3-2 1.3-3.7 3-5c1.7-1.3 3.8-2 6-2c2.2 0 4.3.7 6 2c1.7 1.3 2.7 3 3 5c.3 2 .1 4-.9 5.7z"/><ellipse fill="#fff" cx="64" cy="64" rx="14.1" ry="5.2"/><ellipse fill="#fff" transform="rotate(-60 64 64)" cx="64" cy="64" rx="14.1" ry="5.2"/><ellipse fill="#fff" transform="rotate(-120 64 64)" cx="64" cy="64" rx="14.1" ry="5.2"/></g></svg>