<svg width="256" height="256" viewBox="0 0 256 256" fill="none" xmlns="http://www.w3.org/2000/svg">
<rect width="256" height="256" fill="#DC382D"/>
<g filter="url(#filter0_d_103_35)">
<path d="M129.6 161.6C129.6 172.8 120 182.4 108.8 182.4C97.6 182.4 88 172.8 88 161.6C88 150.4 97.6 140.8 108.8 140.8C120 140.8 129.6 150.4 129.6 161.6Z" fill="#B72D23"/>
</g>
<path d="M166.4 161.6C166.4 172.8 156.8 182.4 145.6 182.4C134.4 182.4 124.8 172.8 124.8 161.6C124.8 150.4 134.4 140.8 145.6 140.8C156.8 140.8 166.4 150.4 166.4 161.6Z" fill="#8E241E"/>
<path d="M129.6 123.2C129.6 134.4 120 144 108.8 144C97.6 144 88 134.4 88 123.2C88 112 97.6 102.4 108.8 102.4C120 102.4 129.6 112 129.6 123.2Z" fill="#A82921"/>
<path d="M166.4 123.2C166.4 134.4 156.8 144 145.6 144C134.4 144 124.8 134.4 124.8 123.2C124.8 112 134.4 102.4 145.6 102.4C156.8 102.4 166.4 112 166.4 123.2Z" fill="#751E18"/>
<path d="M129.6 84.8C129.6 96 120 105.6 108.8 105.6C97.6 105.6 88 96 88 84.8C88 73.6 97.6 64 108.8 64C120 64 129.6 73.6 129.6 84.8Z" fill="#9C261E"/>
<defs>
<filter id="filter0_d_103_35" x="84" y="137.6" width="49.6" height="52" filterUnits="userSpaceOnUse" color-interpolation-filters="sRGB">
<feFlood flood-opacity="0" result="BackgroundImageFix"/>
<feColorMatrix in="SourceAlpha" type="matrix" values="0 0 0 0 0 0 0 0 0 0 0 0 0 0 0 0 0 0 127 0" result="hardAlpha"/>
<feOffset dy="0.8"/>
<feGaussianBlur stdDeviation="1.6"/>
<feComposite in2="hardAlpha" operator="out"/>
<feColorMatrix type="matrix" values="0 0 0 0 0 0 0 0 0 0 0 0 0 0 0 0 0 0 0.25 0"/>
<feBlend mode="normal" in2="BackgroundImageFix" result="effect1_dropShadow_103_35"/>
<feBlend mode="normal" in="SourceGraphic" in2="effect1_dropShadow_103_35" result="shape"/>
</filter>
</defs>
</svg>
