<svg xmlns="http://www.w3.org/2000/svg" viewBox="0 0 128 128"><path fill="#D82C20" d="M128 64c0 35.4-28.6 64-64 64s-64-28.6-64-64s28.6-64 64-64s64 28.6 64 64"/><path fill="#FFF" d="M102.3 84.7V72.2h-17V60h17V47.5h11.2V60H128v12.2h-14.5v12.5zm-53-37.2c-10.1 0-17.6 2.6-22.3 7.8c-4.8 5.2-7.2 12.3-7.2 21.2v15.7h11.2V76.5c0-6.1 1.5-10.9 4.6-14.1c3.1-3.3 7.8-5 13.7-5s10.6 1.7 13.7 5c3.1 3.2 4.6 8 4.6 14.1v15.7h11.2V76.5c0-8.9-2.4-16-7.2-21.2c-4.8-5.2-12.2-7.8-22.3-7.8zm-49.3 0c-10.1 0-17.6 2.6-22.3 7.8c-4.8 5.2-7.2 12.3-7.2 21.2v15.7h11.2V76.5c0-6.1 1.5-10.9 4.6-14.1c3.1-3.3 7.8-5 13.7-5s10.6 1.7 13.7 5c3.1 3.2 4.6 8 4.6 14.1v15.7h11.2V76.5c0-8.9-2.4-16-7.2-21.2c-4.7-5.2-12.2-7.8-22.3-7.8z"/></svg>