<svg xmlns="http://www.w3.org/2000/svg" viewBox="0 0 128 128"><path fill="#CC342D" d="M128 64c0 35.4-28.6 64-64 64S0 99.4 0 64S28.6 0 64 0s64 28.6 64 64"/><path fill="#FFF" d="m63.9 83.1-33.5-35c-4.2-4.4-4.1-11.5.2-15.8l8.6-8.6c4.3-4.3 11.3-4.4 15.6-.2l9.2 9c4.3 4.2 11.2 4.1 15.4-.2l9.2-9.2c4.2-4.2 11.1-4.2 15.3 0l8.7 8.7c4.2 4.2 4.2 11.1 0 15.3L79.4 83.2c-4.2 4.4-11.3 4.4-15.5.1zM36.1 27l-5.6 5.6c-1.4 1.4-1.4 3.7 0 5.1l33.5 35c1.4 1.5 3.8 1.5 5.2 0l33.5-35c1.4-1.5 1.4-3.9 0-5.3l-5.6-5.6c-1.4-1.4-3.7-1.4-5.1 0L81 43.1c-1.4 1.4-3.7 1.4-5.1 0L64.4 32c-1.4-1.4-3.7-1.4-5.1 0L41.2 43c-1.4 1.4-3.7 1.4-5.1 0l-5.6-5.6c-1.3-1.4-3.6-1.5-5.1-.1z"/><path fill="#FFF" d="M39.3 87.7L22.6 71c-4.3-4.3-4.3-11.3 0-15.6l5.7-5.7L64 85.3 39.3 87.7zm49.4 0L105.4 71c4.3-4.3 4.3-11.3 0-15.6l-5.7-5.7L64 85.3l24.7 2.4zM64 108l-26.2-24.1h52.4L64 108z"/></svg>