<svg xmlns="http://www.w3.org/2000/svg" viewBox="0 0 128 128"><path fill="#000" d="M0 0h128v128H0z"/><path fill="#FFF" d="M128 64a64 64 0 0 0-64-64v64h64zM0 64a64 64 0 0 1 64-64v64H0zM0 64a64 64 0 0 0 64 64v-64H0zM128 64a64 64 0 0 1-64 64v-64h64z"/><circle cx="64" cy="64" r="56" fill="#000"/><path fill="#FFF" d="M64 20a44 44 0 1 0 0 88a44 44 0 0 0 0-88zm-30.5 44a30.5 30.5 0 1 1 61 0a30.5 30.5 0 0 1-61 0z"/><path fill="#FFF" d="M49 54.8h30v4.4H49z"/><path fill="#FFF" d="M54.8 64.8V49h4.4v15.8zM69.8 64.8V49h4.4v15.8z"/><path fill="#FFF" d="M56.4 76.4L44.8 64.8l3.1-3.1 11.6 11.6zM73.6 76.4l-3.1-3.1L82.1 61.7l3.1 3.1z"/><path fill="#FFF" d="M94.5 64.8h-16v18.5h-4.4V64.8h-16V60h36.4zM33.5 64.8h16V46.3h4.4v18.5h16V69h-36.4z"/></svg>