<svg xmlns="http://www.w3.org/2000/svg" width="256" height="256" viewBox="0 0 24 24"><path fill="#6db33f" d="M20.895 10.082c-1.25-.434-2.583-.693-3.96-.833l.25-1.5c.292-.083.583-.15.895-.217c1.334-.284 2.625-.717 3.81-1.3l.48-1.783c-1.284.45-2.6.767-3.938.934c-1.333.15-2.666.166-3.98.05l.23-1.433c2.783-.233 5.383-1.15 7.68-2.617L22 0C18.35 1.55 14.65 2.217 11 2.05c-1.25-.05-2.483-.2-3.716-.433L7.05 3.05c1.233.25 2.467.434 3.717.517c1.25.1 2.5.084 3.733-.033l-1.083 6.5c-1.233.183-2.45.417-3.65.7c-1.2.266-2.384.6-3.534.983L5.75 13.5c1.084-.3 2.184-.55 3.284-.733c1.1-.183 2.217-.3 3.333-.367l-1.3 7.8c-.317.05-.634.083-.95.116c-1.35.134-2.684.434-3.984.9l-.533 1.834c1.316-.367 2.65-.634 4-.8c1.35-.15 2.7-.183 4.05-.083l-.234 1.433c-2.734.334-5.334 1.25-7.634 2.684L5.05 24c3.55-1.5 7.15-2.217 10.8-2.1c1.233.05 2.467.2 3.684.416l.233-1.433c-1.234-.233-2.467-.4-3.717-.5c-1.25-.1-2.483-.083-3.716.033l1.116-6.55c1.217-.184 2.434-.417 3.634-.7c1.2-.283 2.383-.617 3.533-1l.484-1.8c-1.066.3-2.15.533-3.233.7c-1.084.167-2.184.267-3.3.317l1.33-7.85Z"/></svg>