<svg role="img" viewBox="0 0 24 24" xmlns="http://www.w3.org/2000/svg"><title>Svelte</title><path d="M22.82 5.484c.325-.566.07-1.273-.497-1.597-.565-.326-1.272-.07-1.597.497l-2.58 4.47-5.14-2.968-2.6-4.503c-.325-.565-.91-1.04-1.597-.497-.565.325-.91.912-.497 1.598l2.602 4.505-8.91 5.144c-.565.326-.818 1.033-.495 1.598.325.565 1.03.818 1.597.496l8.91-5.145 2.58 4.47-5.14 2.968-2.602-4.506c-.325-.565-.91-1.038-1.597-.496-.565.325-.91.91-.497 1.597l2.602 4.505 5.143-2.97 2.58 4.47c.325.565 1.032.818 1.597.496.565-.326.818-1.033.496-1.598l-2.58-4.47 8.91-5.145c.565-.325.818-1.033.496-1.597L19.26 9.95l2.58-4.47zM16.91 12l-2.352 4.073-2.35-4.074 2.35-4.074z"/></svg>