<svg xmlns="http://www.w3.org/2000/svg" viewBox="0 0 128 128"><path fill="#FF3E00" d="M128 64c0 35.4-28.6 64-64 64S0 99.4 0 64S28.6 0 64 0s64 28.6 64 64"/><g fill="#FFF"><path d="M41 40.5L16.2 52.8l20.4 10.1v14.1l-29-14.1V48.6l29-14.1v14.1l-5.6-2.1zM86.8 87.5l24.8-12.3L91.2 65.1V51l29 14.1v14.3l-29 14.1V87.5l5.6 2.1z"/><path d="M78.6 40.3c-2.3-2-5.1-3.1-8.1-3.1-3.6 0-6.9 1.6-9.1 4.5c-2.2 2.9-3.1 6.5-2.5 10.1c-2.3-1.8-4.9-2.7-7.7-2.7c-4.2 0-8 1.6-10.7 4.5c-2.8 2.9-4.2 6.8-4.2 11.2c0 4.7 1.6 8.8 4.7 12s7 5 11.4 5c4.7 0 8.8-1.6 12-4.7c-1.6 3.1-1.6 6.5.2 9.4c2.2 3.4 5.7 5.3 9.9 5.3c3 0 5.8-1.1 8.1-3.1c2.2-2 3.8-4.7 4.5-7.7c.7-3.1.5-6.3-1-9.1c2.3 1.8 4.9 2.7 7.7 2.7c4.2 0 8-1.6 10.7-4.5c2.8-2.9 4.2-6.8 4.2-11.2c0-4.7-1.6-8.8-4.7-12s-7-5-11.4-5c-4.7 0-8.8 1.6-12 4.7c1.6-3.1 1.6-6.5-.2-9.4zM53.1 76c-3.1 0-5.7-1.6-7.3-4.5c-1.6-3-2-6.3-1.1-9.4c1-3.1 3-5.5 6-6.8c3.1-1.3 6.3-.9 9.1 1.3c-1.5 4.3-4.6 7.6-8.8 9.1c-1.3.5-2.6.7-3.9.7zm33-33.8c-1.6 3-2 6.3-1.1 9.4c1 3.1 3 5.5 6 6.8c3.1 1.3 6.3.9 9.1-1.3c-1.5-4.3-4.6-7.6-8.8-9.1c-1.3-.5-2.6-.7-3.9-.7c-3 0-5.6 1.5-7.3 4.5z"/></g></svg>