<svg xmlns="http://www.w3.org/2000/svg" viewBox="0 0 128 128"><path fill="#F05138" d="M128 64c0 35.4-28.6 64-64 64S0 99.4 0 64S28.6 0 64 0s64 28.6 64 64"/><g fill="#FFF"><path d="M107.5 73.4c-2.4 2.8-5.3 5.3-8.6 7.4c-5.8 3.7-12.7 5.6-20 5.6c-5.4 0-10.7-.9-15.6-2.7c-5-1.8-9.3-4.5-12.9-7.9c-3.2-3.1-5.6-6.8-6.9-10.9c-.8-2.6-1.1-5.3-1.1-8c0-5.8 1.7-11.2 4.8-15.9c3-4.6 7.2-8.2 12.3-10.5c3.2-1.5 6.6-2.4 10.2-2.8c-1.3-1.6-2.4-3.4-3.2-5.3c-.8-1.9-1.2-4-1.2-6.1c0-.2 0-.4 0-.6c0-3.3.9-6.3 2.6-8.9c1.7-2.6 4-4.6 6.8-5.8c2.8-1.3 5.9-1.9 9-1.9c1.9 0 3.7.3 5.5.8c2.3.6 4.4 1.7 6.3 3.1c1.9 1.4 3.5 3.2 4.8 5.3c1.3 2.1 2.1 4.4 2.4 6.9c.3 2.5.2 5-.4 7.4c-.6 2.4-1.6 4.7-2.9 6.7c-1.3 2-2.9 3.8-4.6 5.3c-1.8 1.5-3.7 2.8-5.7 3.8c-2 1-4.1 1.8-6.2 2.4c-2.1.6-4.2.9-6.3.9c-2.5 0-4.9-.4-7.2-1.2c-.3 0-.5.1-.7.2c-.2.1-.3.3-.3.5v.2c0 2.2.6 4.3 1.7 6.2c1.1 1.9 2.7 3.5 4.7 4.7c2 1.2 4.3 1.9 6.8 1.9c3.2 0 6.3-.9 9-2.6c2.7-1.7 4.9-4.1 6.3-7c.4-.8.9-1.6 1.4-2.4l1.2-.4c.9-.3 1.8-.1 2.6.4l.2.2c.4.3.7.8.8 1.3c.1.5.1 1.1-.2 1.6l-1.9 3.2c-1.2 2-2.7 3.8-4.4 5.3"/><path d="M104.9 104.9c-11-2.2-20.9-6.4-29.3-12.4c-8.4-6-15.1-13.6-19.8-22.6c-.3-.6-.6-1.2-.8-1.8c-.8-2-1.1-4.2-.9-6.3c.2-2.1.9-4.2 2-6c1.1-1.9 2.7-3.5 4.7-4.7c2-1.2 4.3-1.9 6.8-1.9c2.5 0 4.8.7 6.8 1.9c2 1.2 3.6 2.8 4.7 4.7c1.1 1.9 1.8 4 2 6.1c.2 2.1-.1 4.2-.9 6.2c-.8 2-2.1 3.7-3.8 5.1c-1.7 1.4-3.7 2.4-5.9 2.9c-2.2.5-4.4.6-6.6.1c-.3 0-.6.1-.8.3c-.2.2-.4.5-.4.8c0 .2 0 .3.1.5c1.4 3.7 3.8 6.9 7 9.2c3.2 2.3 7 3.6 11.1 3.6c2.3 0 4.6-.4 6.8-1.1c2.2-.8 4.3-1.9 6.2-3.4c1.9-1.5 3.5-3.3 4.9-5.3c-1.9.9-3.9 1.6-5.9 2z"/></g></svg>