<svg width="256" height="256" viewBox="0 0 256 256" fill="none" xmlns="http://www.w3.org/2000/svg">
<g clip-path="url(#clip0_103_37)">
<path d="M128 256C198.72 256 256 198.72 256 128C256 57.28 198.72 0 128 0C57.28 0 0 57.28 0 128C0 198.72 57.28 256 128 256Z" fill="#38BDF8"/>
<path d="M76 113C89.92 98 103.84 83 117.76 68C125.68 78.4 133.6 88.8 141.52 99.2C130.48 109.84 119.44 120.48 108.4 131.12C120.08 131.12 131.76 131.12 143.44 131.12C151.36 141.52 159.28 151.92 167.2 162.32C153.28 177.32 139.36 192.32 125.44 207.32C117.52 196.92 109.6 186.52 101.68 176.12C112.72 165.48 123.76 154.84 134.8 144.2C123.12 144.2 111.44 144.2 99.76 144.2C91.84 133.8 83.92 123.4 76 113Z" fill="white"/>
<path d="M148 50C161.92 65 175.84 80 189.76 95C197.68 84.6 205.6 74.2 213.52 63.8C202.48 53.16 191.44 42.52 180.4 31.88C192.08 31.88 203.76 31.88 215.44 31.88C223.36 42.28 231.28 52.68 239.2 63.08C225.28 78.08 211.36 93.08 197.44 108.08C189.52 97.68 181.6 87.28 173.68 76.88C184.72 66.24 195.76 55.6 206.8 44.96C195.12 44.96 183.44 44.96 171.76 44.96C163.84 55.36 155.92 65.76 148 76.16C148 67.4133 148 58.7067 148 50Z" fill="white"/>
</g>
<defs>
<clipPath id="clip0_103_37">
<rect width="256" height="256" fill="white"/>
</clipPath>
</defs>
</svg>
