<svg width="256" height="256" viewBox="0 0 256 256" fill="none" xmlns="http://www.w3.org/2000/svg">
<path d="M0 0H256V256H0V0Z" fill="#3178C6"/>
<path d="M43.2 188.8V68.8H121.6V88H65.6V118.4H116.8V137.6H65.6V169.6H123.2V188.8H43.2Z" fill="white"/>
<path d="M211.2 128H187.2C187.2 141.6 176.8 149.6 164.8 149.6C152.8 149.6 144 142.4 144 133.6C144 125.6 149.6 120.8 159.2 116L170.4 110.4C182.4 104 188.8 96 188.8 82.4C188.8 67.2 176 56 159.2 56C142.4 56 130.4 66.4 130.4 81.6H154.4C154.4 74.4 156 69.6 160 69.6C163.2 69.6 165.6 72 165.6 75.2C165.6 80 162.4 82.4 155.2 86.4L144 92C130.4 99.2 124.8 108 124.8 123.2C124.8 140.8 140 152 159.2 152C180 152 195.2 140 195.2 128H211.2V128.8V128Z" fill="white"/>
</g>
</svg>
