<svg xmlns="http://www.w3.org/2000/svg" viewBox="0 0 128 128"><defs><linearGradient id="a" x1="5.3%" y1="100%" x2="94.7%" y2="0%"><stop offset="0%" stop-color="#41D1FF"/><stop offset="100%" stop-color="#BD34FE"/></linearGradient><linearGradient id="b" x1="16.5%" y1="100%" x2="83.5%" y2="0%"><stop offset="0%" stop-color="#FFEA83"/><stop offset="8.3%" stop-color="#FFDD35"/><stop offset="100%" stop-color="#FFC400"/></linearGradient></defs><path fill="url(#a)" d="M124.2 12.1L64 126.9L3.8 12.1C-3.4 1.9 6-5.4 17.6 3.6l46.4 36.3l46.4-36.3c11.6-9 21-5.5 13.8 8.5z"/><path fill="url(#b)" d="M96.7 3.2L64 45.4L31.3 3.2C27.2-1.3 20.4-1.1 16.5 3.6L2.3 16.4c-4.6 5.4-3.5 13.3 2.4 17.1l59.3 47.1l59.3-47.1c5.9-3.8 7-11.7 2.4-17.1L97.5 3.6c-.1-.1-.2-.2-.2-.3c-.1 0-.1 0 0 0c-.1 0 0 0 0 0c-1.2-.8-2.6-1-3.6-1z"/></svg>