<svg xmlns="http://www.w3.org/2000/svg" width="256" height="256" viewBox="0 0 24 24"><path fill="#4353ff" d="M12 0C8.411 0 5.23 1.748 3.125 4.41A12.01 12.01 0 0 0 0 12a11.975 11.975 0 0 0 3.125 7.59C5.23 22.252 8.411 24 12 24c3.589 0 6.77-1.748 8.875-4.41A12.01 12.01 0 0 0 24 12a11.975 11.975 0 0 0-3.125-7.59C18.77 1.748 15.589 0 12 0m-.31 4.5h4.435v6.37c0 1.29-.533 2.327-1.6 3.111a4.23 4.23 0 0 1-2.825 1.019c-1.394 0-2.553-.497-3.475-1.49a5.05 5.05 0 0 1-1.38-3.64c0-.98.24-1.89.72-2.73a4.019 4.019 0 0 1 1.945-1.88a5.201 5.201 0 0 1 2.18-.76z"/></svg>